<svg width="146" height="141" viewBox="0 0 146 141" fill="none" xmlns="http://www.w3.org/2000/svg">
<rect x="30" y="26" width="108" height="112" rx="5" fill="#9E9E9E" stroke="black" stroke-width="2"/>
<g filter="url(#filter0_d_126_16)">
<path d="M95.928 111.136H86.328L87.928 101.664C89.5067 101.28 90.9147 100.64 92.152 99.744C93.432 98.848 94.52 97.8027 95.416 96.608C96.312 95.4133 96.9947 94.1333 97.464 92.768C97.9333 91.36 98.168 89.9733 98.168 88.608C98.168 87.4987 98.0187 86.624 97.72 85.984C97.4213 85.344 96.8453 85.024 95.992 85.024C95.1813 85.024 94.4347 85.3013 93.752 85.856C93.0693 86.368 92.4293 87.072 91.832 87.968C91.2773 88.864 90.7653 89.888 90.296 91.04C89.8267 92.192 89.4213 93.3653 89.08 94.56H79.672L81.656 84.96C83.832 83.1253 86.0933 81.9307 88.44 81.376C90.8293 80.8213 93.176 80.544 95.48 80.544C105.251 80.544 110.136 84.0213 110.136 90.976C110.136 92.9813 109.709 94.752 108.856 96.288C108.003 97.7813 106.915 99.0827 105.592 100.192C104.312 101.301 102.904 102.219 101.368 102.944C99.8747 103.627 98.4667 104.16 97.144 104.544L95.928 111.136ZM83.768 119.84C83.768 118.901 83.96 118.091 84.344 117.408C84.7707 116.683 85.304 116.085 85.944 115.616C86.584 115.147 87.3093 114.805 88.12 114.592C88.9733 114.379 89.848 114.272 90.744 114.272C92.28 114.272 93.56 114.656 94.584 115.424C95.608 116.192 96.12 117.365 96.12 118.944C96.12 119.84 95.928 120.629 95.544 121.312C95.16 121.995 94.648 122.571 94.008 123.04C93.368 123.509 92.6213 123.872 91.768 124.128C90.9573 124.384 90.1253 124.512 89.272 124.512C87.6507 124.512 86.328 124.128 85.304 123.36C84.28 122.592 83.768 121.419 83.768 119.84Z" fill="black"/>
</g>
<rect x="1" y="1" width="123" height="124" rx="5" fill="#F8F8F8" stroke="black" stroke-width="2"/>
<g filter="url(#filter1_d_126_16)">
<path d="M67.392 76.704H52.992L55.392 62.496C57.76 61.92 59.872 60.96 61.728 59.616C63.648 58.272 65.28 56.704 66.624 54.912C67.968 53.12 68.992 51.2 69.696 49.152C70.4 47.04 70.752 44.96 70.752 42.912C70.752 41.248 70.528 39.936 70.08 38.976C69.632 38.016 68.768 37.536 67.488 37.536C66.272 37.536 65.152 37.952 64.128 38.784C63.104 39.552 62.144 40.608 61.248 41.952C60.416 43.296 59.648 44.832 58.944 46.56C58.24 48.288 57.632 50.048 57.12 51.84H43.008L45.984 37.44C49.248 34.688 52.64 32.896 56.16 32.064C59.744 31.232 63.264 30.816 66.72 30.816C81.376 30.816 88.704 36.032 88.704 46.464C88.704 49.472 88.064 52.128 86.784 54.432C85.504 56.672 83.872 58.624 81.888 60.288C79.968 61.952 77.856 63.328 75.552 64.416C73.312 65.44 71.2 66.24 69.216 66.816L67.392 76.704ZM49.152 89.76C49.152 88.352 49.44 87.136 50.016 86.112C50.656 85.024 51.456 84.128 52.416 83.424C53.376 82.72 54.464 82.208 55.68 81.888C56.96 81.568 58.272 81.408 59.616 81.408C61.92 81.408 63.84 81.984 65.376 83.136C66.912 84.288 67.68 86.048 67.68 88.416C67.68 89.76 67.392 90.944 66.816 91.968C66.24 92.992 65.472 93.856 64.512 94.56C63.552 95.264 62.432 95.808 61.152 96.192C59.936 96.576 58.688 96.768 57.408 96.768C54.976 96.768 52.992 96.192 51.456 95.04C49.92 93.888 49.152 92.128 49.152 89.76Z" fill="black"/>
</g>
<defs>
<filter id="filter0_d_126_16" x="79.672" y="80.5439" width="33.364" height="47.868" filterUnits="userSpaceOnUse" color-interpolation-filters="sRGB">
<feFlood flood-opacity="0" result="BackgroundImageFix"/>
<feColorMatrix in="SourceAlpha" type="matrix" values="0 0 0 0 0 0 0 0 0 0 0 0 0 0 0 0 0 0 127 0" result="hardAlpha"/>
<feOffset dx="2" dy="3"/>
<feGaussianBlur stdDeviation="0.45"/>
<feComposite in2="hardAlpha" operator="out"/>
<feColorMatrix type="matrix" values="0 0 0 0 0 0 0 0 0 0 0 0 0 0 0 0 0 0 0.25 0"/>
<feBlend mode="normal" in2="BackgroundImageFix" result="effect1_dropShadow_126_16"/>
<feBlend mode="normal" in="SourceGraphic" in2="effect1_dropShadow_126_16" result="shape"/>
</filter>
<filter id="filter1_d_126_16" x="43.008" y="30.8159" width="48.596" height="69.8521" filterUnits="userSpaceOnUse" color-interpolation-filters="sRGB">
<feFlood flood-opacity="0" result="BackgroundImageFix"/>
<feColorMatrix in="SourceAlpha" type="matrix" values="0 0 0 0 0 0 0 0 0 0 0 0 0 0 0 0 0 0 127 0" result="hardAlpha"/>
<feOffset dx="2" dy="3"/>
<feGaussianBlur stdDeviation="0.45"/>
<feComposite in2="hardAlpha" operator="out"/>
<feColorMatrix type="matrix" values="0 0 0 0 0 0 0 0 0 0 0 0 0 0 0 0 0 0 0.25 0"/>
<feBlend mode="normal" in2="BackgroundImageFix" result="effect1_dropShadow_126_16"/>
<feBlend mode="normal" in="SourceGraphic" in2="effect1_dropShadow_126_16" result="shape"/>
</filter>
</defs>
</svg>
