<svg width="1121" height="652" viewBox="0 0 1121 652" fill="none" xmlns="http://www.w3.org/2000/svg">
<circle cx="697.423" cy="59.1118" r="10.3281" fill="#FDBA74" stroke="#F97316" stroke-width="3.54472"/>
<circle cx="687.095" cy="122.801" r="6.88538" fill="#FDBA74" stroke="#F97316" stroke-width="3.54472"/>
<circle cx="638.897" cy="140.015" r="22.3775" fill="#FDBA74" stroke="#F97316" stroke-width="3.54472"/>
<circle cx="530.453" cy="370.675" r="22.3775" fill="#FDBA74" stroke="#F97316" stroke-width="3.54472"/>
<path d="M340.66 78.1582L340.66 78.1585C324.66 96.2611 306.093 117.268 287.48 136.325C261.48 146.905 235.593 161.691 208.936 179.993C165.477 209.831 136.927 267.59 117.014 307.876C110.549 320.954 104.995 332.191 100.137 340.033C95.4374 347.618 98.0074 357.398 105.868 361.621C127.237 373.099 166.106 378.042 202.451 382.663C208.211 383.395 213.909 384.12 219.463 384.861C251.714 389.164 277.698 381.649 302.298 371.051L302.224 371.083C307.856 394.862 317.697 421.221 346.304 439.9C346.458 462.824 351.973 487.85 374.935 511.182C415.098 551.994 497.477 551.94 533.646 546.811C520.96 538.984 494.778 520.899 491.539 511.182C493.159 512.802 498.989 516.851 509.354 520.09C503.146 513.072 489.596 496.931 485.061 488.509C492.619 490.399 509.516 495.635 516.641 501.465C523.767 507.295 530.947 510.373 533.646 511.182C530.407 499.036 520.042 471.99 504.495 460.978C498.602 456.803 491.369 453.821 483.248 450.471L483.246 450.471C480.443 449.315 477.535 448.115 474.539 446.808C491.855 441.843 506.922 435.851 517.381 430.793C502.913 427.202 472.466 417.954 466.421 409.685C468.457 410.734 475.243 412.815 486.102 412.742C478.051 407.949 460.228 396.703 453.344 390.063C461.118 389.56 478.807 389.401 487.37 392.783C495.933 396.165 503.709 396.909 506.526 396.858C499.741 386.275 481.63 363.673 463.467 357.92C456.582 355.739 448.785 355.102 440.029 354.386H440.029C424.297 353.099 405.473 351.56 383.298 340.365C383.182 339.225 383.125 338.104 383.118 336.989C396.989 333.383 411.862 331.414 428.379 332.227C505.265 336.013 551.454 372.091 602.277 411.788C632.903 435.71 665.212 460.946 706.934 481.221C752.781 517.324 786.904 546.766 814.61 570.67C863.24 612.629 892.099 637.528 929.881 651.448C931.268 641.043 931.129 617.736 919.476 607.748C907.823 597.759 906.297 589.953 906.99 587.299C915.115 590.293 933.108 597.909 940.089 604.424C940.154 593.76 938.205 570.103 929.881 560.796C914.142 546.397 909.472 535.574 904.876 524.922C902.787 520.081 900.714 515.276 897.624 510.187C887.735 493.899 894.505 482.051 906.99 477.044C919.476 472.037 951.634 453.677 954.972 438.655C958.31 423.634 968.324 383.576 980.008 371.892C991.692 360.209 1007.55 318.482 1005.88 297.618C1003.07 298.22 1000.06 300.094 996.736 302.169C991.953 305.152 986.505 308.55 980.008 309.174C972.484 309.898 965.436 309.969 960.799 306.79C961.285 297.251 965.806 277.38 980.008 274.2C994.316 270.997 1010.64 262.452 1016.43 248.644C1017.83 245.32 1018.61 241.692 1018.61 237.76C1005.63 234.718 964.246 225.404 944.192 256.92C924.137 288.436 820.491 436.166 719.08 406.724C687.718 397.619 665.063 357.897 638.19 310.779L638.188 310.777C630.48 297.261 622.424 283.136 613.715 268.951C615.564 271.873 617.312 274.707 618.965 277.434C617.784 273.594 613.648 260.419 606.559 238.442C602.128 224.706 602.128 213.407 602.128 203.549C602.128 193.69 602.128 185.271 597.697 177.296C590.709 164.716 595.845 146.625 601.806 125.631C603.403 120.004 605.06 114.168 606.559 108.174C612.23 85.4875 596.516 61.5016 587.949 52.3444C580.672 50.5979 572.248 47.1304 562.236 43.0097C541.769 34.5852 514.668 23.4304 477.177 18.6696C421.348 11.5802 394.762 18.6696 363.746 52.3444C357.042 59.6226 349.218 68.4749 340.66 78.1582Z" fill="#F97316"/>
<path fill-rule="evenodd" clip-rule="evenodd" d="M194.757 165.815C278.513 108.309 354.667 85.5114 450.639 118.849C540.418 150.036 586.356 230.579 624.011 296.601C650.884 343.719 673.539 383.44 704.901 392.546C806.312 421.987 909.958 274.257 930.013 242.741C950.067 211.226 991.449 220.539 1004.43 223.581C1004.43 227.513 1003.65 231.142 1002.25 234.465C996.458 248.273 980.137 256.818 965.829 260.022C951.627 263.201 947.105 283.073 946.62 292.611C951.256 295.791 958.304 295.719 965.829 294.996C972.326 294.371 977.773 290.973 982.556 287.99C985.882 285.916 988.887 284.042 991.7 283.44C993.369 304.303 977.512 346.03 965.829 357.714C954.145 369.397 944.131 409.455 940.793 424.477C937.455 439.498 905.297 457.858 892.811 462.866C880.325 467.873 873.555 479.721 883.445 496.008C886.534 501.098 888.608 505.903 890.697 510.743C895.293 521.395 899.963 532.219 915.702 546.617C924.025 555.925 925.975 579.581 925.91 590.246C918.929 583.731 900.935 576.114 892.811 573.121C892.117 575.775 893.643 583.581 905.297 593.569C916.95 603.558 917.089 626.864 915.702 637.269C877.919 623.349 849.061 598.45 800.43 556.492C772.725 532.587 738.602 503.146 692.755 467.043C651.033 446.767 618.724 421.531 588.098 397.61C537.275 357.913 491.085 321.834 414.2 318.048C373.647 316.051 343.002 330.831 312.775 345.409C280.365 361.04 248.435 376.44 205.284 370.682C199.73 369.941 194.033 369.217 188.272 368.484C164.518 365.464 139.686 362.307 119.366 357.277C108.595 354.611 99.0917 351.419 91.6887 347.442C83.8282 343.22 81.2582 333.439 85.9575 325.854C90.8161 318.012 96.3703 306.776 102.835 293.698C122.748 253.412 151.298 195.653 194.757 165.815ZM215.414 286.767C216.077 284.036 215.773 281.16 214.553 278.629L209.271 281.174C209.902 282.483 210.059 283.971 209.716 285.383C209.373 286.796 208.551 288.046 207.39 288.92C206.228 289.795 204.8 290.239 203.348 290.178C201.895 290.117 200.509 289.555 199.425 288.587C198.341 287.618 197.626 286.304 197.402 284.868C197.179 283.431 197.46 281.962 198.198 280.71C198.937 279.458 200.086 278.5 201.451 278.001C202.816 277.501 204.312 277.49 205.685 277.97L207.62 272.435C204.967 271.508 202.075 271.529 199.436 272.494C196.797 273.46 194.575 275.311 193.148 277.732C191.72 280.152 191.177 282.993 191.609 285.77C192.041 288.546 193.423 291.087 195.519 292.959C197.615 294.831 200.295 295.919 203.102 296.037C205.91 296.154 208.671 295.295 210.916 293.604C213.161 291.914 214.751 289.498 215.414 286.767Z" fill="#FDBA74"/>
<path d="M1002.25 234.465C1003.65 231.142 1004.43 227.513 1004.43 223.581C991.449 220.539 950.067 211.226 930.013 242.741C909.958 274.257 806.312 421.987 704.901 392.546C673.539 383.44 650.884 343.719 624.011 296.601C586.356 230.579 540.418 150.036 450.639 118.849C354.667 85.5114 278.513 108.309 194.757 165.815C151.298 195.653 122.748 253.412 102.835 293.698C96.3703 306.776 90.8161 318.012 85.9575 325.854C81.2582 333.439 83.8282 343.22 91.6887 347.442M1002.25 234.465C996.458 248.273 980.137 256.818 965.829 260.022C951.627 263.201 947.105 283.073 946.62 292.611M1002.25 234.465C1000.34 234.731 998.131 234.767 995.617 234.808C989.597 234.906 981.838 235.032 972.307 238.408C942.304 249.033 937.23 258.234 916.159 296.447C914.097 300.187 911.882 304.205 909.475 308.529C883.445 353.818 795.904 424.19 731.803 418.616M946.62 292.611C951.256 295.791 958.304 295.719 965.829 294.996C972.326 294.371 977.773 290.973 982.556 287.99C985.882 285.916 988.887 284.042 991.7 283.44M946.62 292.611C945.047 293.924 940.782 301.024 935.135 310.425C925.493 326.476 911.822 349.235 900.645 361.345C867.576 397.176 787.592 424.477 787.592 424.477M991.7 283.44C993.369 304.303 977.512 346.03 965.829 357.714C954.145 369.397 944.131 409.455 940.793 424.477M991.7 283.44C987.802 295.199 975.007 322.302 955.009 336.634C945.092 343.742 938.51 351.725 931.27 360.506C920.261 373.857 907.73 389.054 879.641 405.825C845.971 425.927 813.539 434.861 813.539 434.861M940.793 424.477C937.455 439.498 905.297 457.858 892.811 462.866C880.325 467.873 873.555 479.721 883.445 496.008M940.793 424.477C931.529 429.585 893.973 447.587 862.343 449.069C830.713 450.552 787.592 444.127 787.592 444.127M883.445 496.008C886.534 501.098 888.608 505.903 890.697 510.743C895.293 521.395 899.963 532.219 915.702 546.617C924.025 555.925 925.975 579.581 925.91 590.246M883.445 496.008C875.999 493.316 855.671 485.842 833.925 477.487C812.179 469.132 762.881 455.865 762.881 455.865M925.91 590.246C918.929 583.731 900.935 576.114 892.811 573.121C892.117 575.775 893.643 583.581 905.297 593.569M925.91 590.246C919.959 581.243 904.105 559.913 888.289 546.617C878.664 538.525 866.108 533.641 851.551 527.977C836.211 522.01 818.649 515.178 799.947 502.816C770.788 483.541 749.496 470.936 742.494 467.043M905.297 593.569C916.95 603.558 917.089 626.864 915.702 637.269C877.919 623.349 849.061 598.45 800.43 556.492C772.725 532.587 738.602 503.146 692.755 467.043C651.033 446.767 618.724 421.531 588.098 397.61C537.275 357.913 491.085 321.834 414.2 318.048C373.647 316.051 343.002 330.831 312.775 345.409C280.365 361.04 248.435 376.44 205.284 370.682C199.73 369.941 194.033 369.217 188.272 368.484C164.518 365.464 139.686 362.307 119.366 357.277C108.595 354.611 99.0917 351.419 91.6887 347.442M905.297 593.569C874.698 579.42 866.667 574.478 818.481 540.5C779.932 513.318 735.287 480.203 717.783 467.043M91.6887 347.442C108.424 355.31 125.283 352.254 131.62 349.742M214.553 278.629C215.773 281.16 216.077 284.036 215.414 286.767C214.751 289.498 213.161 291.914 210.916 293.604C208.671 295.295 205.91 296.154 203.102 296.037C200.295 295.919 197.615 294.831 195.519 292.959C193.423 291.087 192.041 288.546 191.609 285.77C191.177 282.993 191.72 280.152 193.148 277.732C194.575 275.311 196.797 273.46 199.436 272.494C202.075 271.529 204.967 271.508 207.62 272.435L205.685 277.97C204.312 277.49 202.816 277.501 201.451 278.001C200.086 278.5 198.937 279.458 198.198 280.71C197.46 281.962 197.179 283.431 197.402 284.868C197.626 286.304 198.341 287.618 199.425 288.587C200.509 289.555 201.895 290.117 203.348 290.178C204.8 290.239 206.228 289.795 207.39 288.92C208.551 288.046 209.373 286.796 209.716 285.383C210.059 283.971 209.902 282.483 209.271 281.174L214.553 278.629Z" stroke="#F97316" stroke-width="3.54472"/>
<path d="M349.567 38.1657C318.551 71.8405 263.549 139.213 222.785 166.684C260.005 159.3 337.807 111.913 408.055 121.467C518.827 136.532 576.133 215.992 604.786 263.255C603.605 259.415 599.469 246.241 592.38 224.263C583.518 196.792 592.38 179.068 583.518 163.117C574.656 147.166 585.29 122.353 592.38 93.995C598.051 71.3088 582.336 47.3229 573.77 38.1657C551.616 32.8486 518.827 11.5804 462.998 4.49092C407.168 -2.59851 380.583 4.49092 349.567 38.1657Z" fill="#FDBA74" stroke="#F97316" stroke-width="3.54472"/>
<path d="M288.045 356.904C294.234 383.036 305.506 412.283 341.18 431.029C391.868 457.665 470.314 432.518 503.202 416.614C488.734 413.024 458.287 403.775 452.242 395.506C454.278 396.556 461.064 398.636 471.923 398.563C463.872 393.77 446.049 382.524 439.165 375.885C446.939 375.382 464.628 375.222 473.191 378.604C481.754 381.986 489.53 382.73 492.347 382.679C485.562 372.097 467.451 349.494 449.288 343.741C442.403 341.561 434.605 340.923 425.85 340.207C409.117 338.839 388.885 337.185 364.844 323.929C346.294 329.243 329.471 337.357 312.775 345.409C304.565 349.369 296.384 353.314 288.045 356.904Z" fill="#FDBA74" stroke="#F97316" stroke-width="3.54472"/>
<path d="M221.551 164.336C265.579 140.585 318.55 71.8405 349.567 38.1657C380.583 4.49092 407.168 -2.59851 462.998 4.49092C518.827 11.5804 551.615 32.8486 573.77 38.1657C582.336 47.3229 598.051 71.3088 592.38 93.995M592.38 93.995C588.636 88.2458 568.859 70.4947 551.321 62.0867C493.599 34.4148 433.53 15.0716 387.021 48.9427C349.813 76.0396 314.729 117.696 286.419 132.862M592.38 93.995C589.864 104.058 586.902 113.674 584.523 122.606M583.518 163.117C592.38 179.068 583.518 196.792 592.38 224.263C599.469 246.241 603.605 259.415 604.786 263.255M583.518 163.117C577.801 152.826 580.198 138.846 584.523 122.606M583.518 163.117C577.461 160.999 562.541 154.704 551.321 146.47C537.296 136.176 481.051 93.995 444.652 93.995C415.533 93.995 401.84 102.739 398.633 107.111M584.523 122.606C576.657 114.397 543.769 93.0025 514.417 83.3193C476.255 70.7301 447.409 56.7588 408.253 71.1864C382.614 80.6337 368.316 106.574 352.644 113.652" stroke="#F97316" stroke-width="3.54472" stroke-miterlimit="6.07152"/>
<path d="M334.034 359.346C326.26 337.32 305.817 334.132 296.91 336.561C288.621 316.544 372.309 292.413 369.464 316.038C367.035 332.233 372.092 344.77 404.482 388.497C436.872 432.223 470.882 433.033 490.316 446.799C505.863 457.812 516.228 484.857 519.467 497.004C516.768 496.194 509.588 493.117 502.462 487.287C495.336 481.456 478.44 476.22 470.882 474.331C475.417 482.752 488.966 498.893 495.175 505.911C484.81 502.672 478.979 498.623 477.36 497.004C480.599 506.721 506.781 524.805 519.467 532.633C483.298 537.761 400.919 537.815 360.756 497.004C310.551 445.989 343.751 386.877 334.034 359.346Z" fill="#FDBA74" stroke="#F97316" stroke-width="3.54472"/>
<path d="M297.595 339.102C306.502 336.673 326.26 337.32 334.034 359.346C343.751 386.877 310.551 445.989 360.755 497.004C400.919 537.815 483.298 537.761 519.467 532.633C515.978 530.48 511.469 527.552 506.697 524.235M477.36 497.004C478.979 498.623 484.81 502.672 495.174 505.911C488.966 498.893 475.416 482.752 470.882 474.331M477.36 497.004C479.708 504.048 494.116 515.491 506.697 524.235M477.36 497.004C442.915 474.331 436.584 487.287 404.482 456.167C372.381 425.048 378.086 408.473 372.092 382.305M470.882 474.331C478.44 476.22 495.336 481.456 502.462 487.287C509.588 493.117 516.768 496.194 519.467 497.004C516.228 484.857 505.863 457.812 490.316 446.799C470.882 433.033 436.872 432.223 404.482 388.497C372.092 344.77 369.663 332.624 372.092 316.429M470.882 474.331C431.097 456.167 416.746 435.486 407.039 420.291M506.697 524.235C478.261 526.729 413.032 522.348 379.604 484.868C337.819 438.018 356.812 380.617 347.105 356.137" stroke="#F97316" stroke-width="3.54472" stroke-miterlimit="6.07152"/>
<path d="M674.448 451.734L683.677 400.512C685.763 388.934 683.851 377.701 679.016 368.094C674.46 363.093 670.013 357.454 665.611 351.294C658.087 345.08 648.75 340.921 638.408 339.778C634.123 338.522 629.598 337.802 624.903 337.699C618.087 334.382 613.852 326.822 615.296 318.806L622.366 279.569C618.537 272.927 615.296 268.966 611.876 261.483C608.456 254 606.559 244.468 599.469 222.491C595.038 208.755 595.038 197.457 595.038 187.598L595.038 186.766L589.23 218.999C590.759 222.146 594.06 229.977 595.038 236.126C596.016 242.275 597.659 256.971 598.357 263.551L584.59 244.754L572.663 310.949C567.276 340.844 588.548 368.435 617.932 371.683C622.216 372.939 626.742 373.659 631.437 373.762C638.253 377.079 642.488 384.639 641.044 392.655L635.026 426.056C647.365 434.9 660.376 443.564 674.448 451.734Z" fill="#F97316"/>
<path d="M595.038 236.126C594.059 229.977 590.758 222.146 589.23 218.999L584.589 244.754L598.357 263.551C597.658 256.971 596.016 242.275 595.038 236.126Z" fill="#FDBA74"/>
<path d="M537.473 358.164C535.574 296.225 553.124 274.75 585.855 237.464C632.477 303.347 651.915 362.219 691.205 386.381L675.553 458.136C619.436 427.284 582.181 387.298 537.473 358.164Z" fill="#FDBA74"/>
<path d="M535.65 358.96C580.358 388.093 619.436 427.284 675.553 458.136M691.205 386.382C653.952 363.472 627.821 296.674 585.471 233.651" stroke="#F97316" stroke-width="3.54472"/>
<circle cx="72.5754" cy="267.394" r="10.3281" fill="#FDBA74" stroke="#F97316" stroke-width="3.54472"/>
<circle cx="31.263" cy="162.393" r="8.60672" fill="#FDBA74" stroke="#F97316" stroke-width="3.54472"/>
<circle cx="67.4114" cy="110.752" r="13.7708" fill="#FDBA74" stroke="#F97316" stroke-width="3.54472"/>
<circle cx="317.006" cy="270.837" r="13.7708" fill="#FDBA74" stroke="#F97316" stroke-width="3.54472"/>
<circle cx="962.51" cy="411.987" r="22.3775" fill="#FDBA74" stroke="#F97316" stroke-width="3.54472"/>
<circle cx="926.362" cy="527.318" r="6.88538" fill="#FDBA74" stroke="#F97316" stroke-width="3.54472"/>
<circle cx="1112.27" cy="339.691" r="6.88538" fill="#FDBA74" stroke="#F97316" stroke-width="3.54472"/>
<circle cx="1086.45" cy="370.675" r="6.88538" fill="#FDBA74" stroke="#F97316" stroke-width="3.54472"/>
<circle cx="656.111" cy="396.495" r="13.7708" fill="#FDBA74" stroke="#F97316" stroke-width="3.54472"/>
<circle cx="628.57" cy="472.235" r="13.7708" fill="#FDBA74" stroke="#F97316" stroke-width="3.54472"/>
<path fill-rule="evenodd" clip-rule="evenodd" d="M1072.68 257.066C1080.28 257.066 1086.45 250.901 1086.45 243.296C1086.45 235.69 1080.28 229.525 1072.68 229.525C1066.95 229.525 1062.04 233.02 1059.96 237.993C1057.52 236.973 1054.83 236.41 1052.02 236.41C1040.61 236.41 1031.36 245.658 1031.36 257.066C1031.36 268.474 1040.61 277.723 1052.02 277.723C1063.43 277.723 1072.68 268.474 1072.68 257.066Z" fill="#FDBA74"/>
<path d="M1072.68 257.066V255.294H1070.9L1070.9 257.066L1072.68 257.066ZM1059.96 237.993L1059.28 239.629L1060.92 240.31L1061.6 238.676L1059.96 237.993ZM1084.67 243.296C1084.67 249.922 1079.3 255.294 1072.68 255.294V258.839C1081.26 258.839 1088.22 251.88 1088.22 243.296H1084.67ZM1072.68 231.297C1079.3 231.297 1084.67 236.669 1084.67 243.296H1088.22C1088.22 234.711 1081.26 227.753 1072.68 227.753V231.297ZM1061.6 238.676C1063.41 234.339 1067.69 231.297 1072.68 231.297V227.753C1066.21 227.753 1060.67 231.7 1058.33 237.31L1061.6 238.676ZM1052.02 238.183C1054.6 238.183 1057.05 238.698 1059.28 239.629L1060.65 236.357C1057.99 235.249 1055.07 234.638 1052.02 234.638V238.183ZM1033.14 257.066C1033.14 246.637 1041.59 238.183 1052.02 238.183V234.638C1039.63 234.638 1029.59 244.679 1029.59 257.066H1033.14ZM1052.02 275.95C1041.59 275.95 1033.14 267.496 1033.14 257.066H1029.59C1029.59 269.453 1039.63 279.495 1052.02 279.495V275.95ZM1070.9 257.066C1070.9 267.496 1062.45 275.95 1052.02 275.95V279.495C1064.41 279.495 1074.45 269.453 1074.45 257.066L1070.9 257.066Z" fill="#F97316"/>
<circle cx="604.47" cy="432.643" r="6.88538" fill="#FDBA74" stroke="#F97316" stroke-width="3.54472"/>
<circle cx="649.225" cy="442.971" r="6.88538" fill="#FDBA74" stroke="#F97316" stroke-width="3.54472"/>
<circle cx="1112.27" cy="184.77" r="6.88538" fill="#FDBA74" stroke="#F97316" stroke-width="3.54472"/>
<path fill-rule="evenodd" clip-rule="evenodd" d="M573.068 430.747C574.386 429.493 575.208 427.721 575.208 425.758C575.208 421.956 572.125 418.873 568.322 418.873C564.52 418.873 561.437 421.956 561.437 425.758C561.437 427.067 561.802 428.291 562.436 429.333C551.227 430.55 542.502 440.045 542.502 451.579C542.502 451.614 542.502 451.65 542.502 451.685C535.709 452.532 530.453 458.327 530.453 465.349C530.453 472.955 536.618 479.12 544.223 479.12C549.335 479.12 553.797 476.335 556.172 472.199C558.849 473.33 561.791 473.956 564.879 473.956C577.238 473.956 587.257 463.937 587.257 451.579C587.257 442.11 581.376 434.015 573.068 430.747Z" fill="#FDBA74"/>
<path d="M573.068 430.747L571.846 429.463L569.833 431.379L572.419 432.396L573.068 430.747ZM562.436 429.333L562.628 431.095L565.4 430.794L563.95 428.412L562.436 429.333ZM542.502 451.685L542.722 453.444L544.282 453.249L544.275 451.677L542.502 451.685ZM556.172 472.199L556.863 470.566L555.417 469.955L554.636 471.316L556.172 472.199ZM574.29 432.031C575.945 430.456 576.98 428.226 576.98 425.758H573.435C573.435 427.216 572.827 428.529 571.846 429.463L574.29 432.031ZM576.98 425.758C576.98 420.977 573.104 417.101 568.322 417.101V420.645C571.146 420.645 573.435 422.935 573.435 425.758H576.98ZM568.322 417.101C563.541 417.101 559.664 420.977 559.664 425.758H563.209C563.209 422.935 565.498 420.645 568.322 420.645V417.101ZM559.664 425.758C559.664 427.401 560.124 428.943 560.922 430.254L563.95 428.412C563.48 427.639 563.209 426.733 563.209 425.758H559.664ZM544.274 451.579C544.274 440.96 552.308 432.216 562.628 431.095L562.245 427.571C550.146 428.885 540.73 439.131 540.73 451.579H544.274ZM544.275 451.677C544.274 451.644 544.274 451.611 544.274 451.579H540.73C540.73 451.617 540.73 451.655 540.73 451.693L544.275 451.677ZM542.283 449.926C534.614 450.883 528.68 457.422 528.68 465.349H532.225C532.225 459.232 536.805 454.182 542.722 453.444L542.283 449.926ZM528.68 465.349C528.68 473.934 535.639 480.892 544.223 480.892V477.348C537.597 477.348 532.225 471.976 532.225 465.349H528.68ZM544.223 480.892C549.995 480.892 555.03 477.745 557.709 473.082L554.636 471.316C552.563 474.924 548.675 477.348 544.223 477.348V480.892ZM564.879 472.184C562.032 472.184 559.325 471.607 556.863 470.566L555.482 473.831C558.373 475.054 561.55 475.728 564.879 475.728V472.184ZM585.485 451.579C585.485 462.958 576.259 472.184 564.879 472.184V475.728C578.217 475.728 589.029 464.916 589.029 451.579H585.485ZM572.419 432.396C580.073 435.407 585.485 442.863 585.485 451.579H589.029C589.029 441.357 582.68 432.624 573.717 429.097L572.419 432.396Z" fill="#F97316"/>
<circle cx="408.238" cy="198.541" r="13.7708" fill="#FDBA74" stroke="#F97316" stroke-width="3.54472"/>
<circle cx="325.613" cy="212.312" r="8.60672" fill="#FDBA74" stroke="#F97316" stroke-width="3.54472"/>
<circle cx="55.3619" cy="57.3903" r="6.88538" fill="#FDBA74" stroke="#F97316" stroke-width="3.54472"/>
<path fill-rule="evenodd" clip-rule="evenodd" d="M53.5779 205.338C61.3539 204.511 67.4111 197.93 67.4111 189.934C67.4111 181.378 60.475 174.442 51.919 174.442C45.7122 174.442 40.3579 178.092 37.8855 183.363C34.7925 182.052 31.391 181.327 27.8202 181.327C13.5601 181.327 2 192.887 2 207.147C2 221.408 13.5601 232.968 27.8202 232.968C42.0802 232.968 53.6403 221.408 53.6403 207.147C53.6403 206.539 53.6193 205.936 53.5779 205.338Z" fill="#FDBA74"/>
<path d="M53.5779 205.338L53.3903 203.576L51.6919 203.757L51.8098 205.461L53.5779 205.338ZM37.8855 183.363L37.1941 184.995L38.7654 185.66L39.4901 184.115L37.8855 183.363ZM65.6387 189.934C65.6387 197.014 60.2748 202.843 53.3903 203.576L53.7655 207.101C62.433 206.178 69.1834 198.845 69.1834 189.934H65.6387ZM51.919 176.214C59.4962 176.214 65.6387 182.357 65.6387 189.934H69.1834C69.1834 180.399 61.4539 172.67 51.919 172.67V176.214ZM39.4901 184.115C41.6815 179.444 46.4249 176.214 51.919 176.214V172.67C44.9994 172.67 39.0342 176.74 36.2809 182.61L39.4901 184.115ZM27.8202 183.1C31.1491 183.1 34.3158 183.775 37.1941 184.995L38.577 181.731C35.2691 180.329 31.6328 179.555 27.8202 179.555V183.1ZM3.77236 207.147C3.77236 193.866 14.5389 183.1 27.8202 183.1V179.555C12.5812 179.555 0.227642 191.909 0.227642 207.147H3.77236ZM27.8202 231.195C14.5389 231.195 3.77236 220.429 3.77236 207.147H0.227642C0.227642 222.386 12.5812 234.74 27.8202 234.74V231.195ZM51.868 207.147C51.868 220.429 41.1014 231.195 27.8202 231.195V234.74C43.0591 234.74 55.4127 222.386 55.4127 207.147H51.868ZM51.8098 205.461C51.8483 206.018 51.868 206.58 51.868 207.147H55.4127C55.4127 206.498 55.3902 205.854 55.346 205.216L51.8098 205.461Z" fill="#F97316"/>
<path fill-rule="evenodd" clip-rule="evenodd" d="M204.099 323.483C196.374 322.27 188.82 327.059 186.751 334.782C184.536 343.046 189.441 351.541 197.705 353.756C203.701 355.362 209.817 353.222 213.569 348.771C216.218 350.838 219.316 352.418 222.765 353.342C236.539 357.033 250.697 348.859 254.388 335.085C258.079 321.31 249.905 307.152 236.131 303.462C222.356 299.771 208.198 307.945 204.507 321.719C204.35 322.307 204.214 322.895 204.099 323.483Z" fill="#FDBA74"/>
<path d="M204.099 323.483L203.825 325.234L205.512 325.499L205.839 323.822L204.099 323.483ZM197.705 353.756L197.247 355.468L197.705 353.756ZM213.569 348.771L214.66 347.374L213.314 346.324L212.214 347.629L213.569 348.771ZM222.765 353.342L222.306 355.054L222.306 355.054L222.765 353.342ZM188.463 335.241C190.295 328.402 196.985 324.16 203.825 325.234L204.374 321.732C195.763 320.38 187.345 325.715 185.039 334.323L188.463 335.241ZM198.164 352.044C190.845 350.083 186.502 342.56 188.463 335.241L185.039 334.323C182.571 343.533 188.037 353 197.247 355.468L198.164 352.044ZM212.214 347.629C208.888 351.574 203.471 353.466 198.164 352.044L197.247 355.468C203.93 357.259 210.746 354.87 214.925 349.913L212.214 347.629ZM223.224 351.63C220.008 350.769 217.124 349.297 214.66 347.374L212.479 350.168C215.312 352.378 218.624 354.067 222.306 355.054L223.224 351.63ZM252.676 334.626C249.239 347.455 236.052 355.068 223.224 351.63L222.306 355.054C237.026 358.998 252.156 350.263 256.1 335.543L252.676 334.626ZM235.672 305.173C248.501 308.611 256.114 321.797 252.676 334.626L256.1 335.543C260.044 320.824 251.309 305.694 236.589 301.75L235.672 305.173ZM206.219 322.178C209.657 309.349 222.843 301.736 235.672 305.173L236.589 301.75C221.87 297.805 206.74 306.541 202.795 321.26L206.219 322.178ZM205.839 323.822C205.946 323.274 206.073 322.726 206.219 322.178L202.795 321.26C202.627 321.887 202.482 322.515 202.36 323.143L205.839 323.822Z" fill="#F97316"/>
<path fill-rule="evenodd" clip-rule="evenodd" d="M1018.84 399.134C1022.14 394.272 1028.04 391.593 1034.04 392.536C1034.16 391.948 1034.29 391.359 1034.45 390.772C1037.3 380.136 1046.39 372.839 1056.73 371.765C1056.01 370.131 1055.83 368.254 1056.33 366.399C1057.49 362.047 1061.96 359.465 1066.32 360.631C1070.67 361.797 1073.25 366.269 1072.08 370.621C1071.73 371.93 1071.08 373.079 1070.23 374.014C1081.44 379.18 1087.63 391.812 1084.33 404.137C1080.64 417.912 1066.48 426.086 1052.71 422.395C1049.26 421.471 1046.16 419.89 1043.51 417.824C1039.76 422.275 1033.64 424.415 1027.65 422.809C1022.4 421.402 1018.5 417.462 1016.93 412.657C1015.25 413.447 1013.29 413.669 1011.35 413.151C1007 411.985 1004.42 407.512 1005.59 403.161C1006.75 398.81 1011.23 396.228 1015.58 397.394C1016.83 397.728 1017.93 398.336 1018.84 399.134Z" fill="#FDBA74"/>
<path d="M1018.84 399.134L1017.67 400.467L1019.18 401.789L1020.31 400.131L1018.84 399.134ZM1034.04 392.536L1033.77 394.286L1035.45 394.551L1035.78 392.875L1034.04 392.536ZM1056.73 371.765L1056.91 373.528L1059.32 373.278L1058.35 371.057L1056.73 371.765ZM1072.08 370.621L1073.8 371.079L1073.8 371.079L1072.08 370.621ZM1070.23 374.014L1068.92 372.817L1067.28 374.608L1069.48 375.624L1070.23 374.014ZM1052.71 422.395L1052.25 424.107L1052.25 424.107L1052.71 422.395ZM1043.51 417.824L1044.6 416.427L1043.26 415.377L1042.16 416.682L1043.51 417.824ZM1016.93 412.657L1018.61 412.105L1017.99 410.201L1016.18 411.053L1016.93 412.657ZM1011.35 413.151L1010.9 414.863L1010.9 414.863L1011.35 413.151ZM1015.58 397.394L1015.12 399.106L1015.12 399.106L1015.58 397.394ZM1020.31 400.131C1023.23 395.824 1028.46 393.453 1033.77 394.286L1034.32 390.785C1027.62 389.734 1021.06 392.721 1017.37 398.138L1020.31 400.131ZM1035.78 392.875C1035.89 392.327 1036.01 391.779 1036.16 391.231L1032.74 390.313C1032.57 390.94 1032.42 391.568 1032.3 392.196L1035.78 392.875ZM1036.16 391.231C1038.81 381.327 1047.28 374.528 1056.91 373.528L1056.54 370.002C1045.5 371.149 1035.78 378.944 1032.74 390.313L1036.16 391.231ZM1058.35 371.057C1057.79 369.778 1057.65 368.311 1058.04 366.857L1054.61 365.94C1054.01 368.197 1054.23 370.485 1055.1 372.474L1058.35 371.057ZM1058.04 366.857C1058.95 363.452 1062.45 361.43 1065.86 362.343L1066.77 358.919C1061.48 357.5 1056.03 360.643 1054.61 365.94L1058.04 366.857ZM1065.86 362.343C1069.26 363.256 1071.28 366.756 1070.37 370.162L1073.8 371.079C1075.21 365.783 1072.07 360.338 1066.77 358.919L1065.86 362.343ZM1070.37 370.162C1070.1 371.19 1069.59 372.087 1068.92 372.817L1071.53 375.211C1072.58 374.071 1073.37 372.67 1073.8 371.079L1070.37 370.162ZM1069.48 375.624C1079.92 380.434 1085.69 392.201 1082.62 403.679L1086.04 404.596C1089.57 391.423 1082.95 377.925 1070.97 372.404L1069.48 375.624ZM1082.62 403.679C1079.18 416.507 1065.99 424.12 1053.17 420.683L1052.25 424.107C1066.97 428.051 1082.1 419.316 1086.04 404.596L1082.62 403.679ZM1053.17 420.683C1049.95 419.821 1047.07 418.349 1044.6 416.427L1042.42 419.221C1045.25 421.431 1048.57 423.12 1052.25 424.107L1053.17 420.683ZM1042.16 416.682C1038.83 420.627 1033.41 422.519 1028.11 421.097L1027.19 424.521C1033.87 426.311 1040.69 423.923 1044.87 418.966L1042.16 416.682ZM1028.11 421.097C1023.46 419.851 1020.01 416.365 1018.61 412.105L1015.25 413.209C1017 418.559 1021.34 422.953 1027.19 424.521L1028.11 421.097ZM1016.18 411.053C1014.86 411.671 1013.33 411.845 1011.81 411.439L1010.9 414.863C1013.25 415.493 1015.64 415.222 1017.68 414.261L1016.18 411.053ZM1011.81 411.439C1008.41 410.526 1006.39 407.026 1007.3 403.62L1003.87 402.702C1002.46 407.999 1005.6 413.443 1010.9 414.863L1011.81 411.439ZM1007.3 403.62C1008.21 400.214 1011.71 398.193 1015.12 399.106L1016.04 395.682C1010.74 394.262 1005.29 397.406 1003.87 402.702L1007.3 403.62ZM1015.12 399.106C1016.1 399.368 1016.96 399.843 1017.67 400.467L1020.01 397.802C1018.9 396.828 1017.55 396.088 1016.04 395.682L1015.12 399.106Z" fill="#F97316"/>
</svg>
