<svg id="visual" viewBox="0 0 900 450" width="900" height="450" xmlns="http://www.w3.org/2000/svg" xmlns:xlink="http://www.w3.org/1999/xlink" version="1.1"><rect x="0" y="0" width="900" height="450" fill="#134E4A"></rect><path d="M0 253L100 253L100 192L200 192L200 205L300 205L300 239L400 239L400 180L500 180L500 238L600 238L600 213L700 213L700 257L800 257L800 182L900 182L900 262L900 451L900 451L800 451L800 451L700 451L700 451L600 451L600 451L500 451L500 451L400 451L400 451L300 451L300 451L200 451L200 451L100 451L100 451L0 451Z" fill="#14b8a6"></path><path d="M0 242L100 242L100 281L200 281L200 282L300 282L300 251L400 251L400 253L500 253L500 304L600 304L600 284L700 284L700 276L800 276L800 254L900 254L900 316L900 451L900 451L800 451L800 451L700 451L700 451L600 451L600 451L500 451L500 451L400 451L400 451L300 451L300 451L200 451L200 451L100 451L100 451L0 451Z" fill="#11a193"></path><path d="M0 298L100 298L100 317L200 317L200 348L300 348L300 365L400 365L400 324L500 324L500 359L600 359L600 332L700 332L700 336L800 336L800 363L900 363L900 305L900 451L900 451L800 451L800 451L700 451L700 451L600 451L600 451L500 451L500 451L400 451L400 451L300 451L300 451L200 451L200 451L100 451L100 451L0 451Z" fill="#108b81"></path><path d="M0 362L100 362L100 403L200 403L200 381L300 381L300 398L400 398L400 395L500 395L500 359L600 359L600 362L700 362L700 386L800 386L800 377L900 377L900 403L900 451L900 451L800 451L800 451L700 451L700 451L600 451L600 451L500 451L500 451L400 451L400 451L300 451L300 451L200 451L200 451L100 451L100 451L0 451Z" fill="#0f766e"></path></svg>