<svg id="visual" viewBox="0 0 900 450" width="900" height="450" xmlns="http://www.w3.org/2000/svg" xmlns:xlink="http://www.w3.org/1999/xlink" version="1.1"><path d="M0 171L82 171L82 172L164 172L164 272L245 272L245 195L327 195L327 172L409 172L409 201L491 201L491 187L573 187L573 199L655 199L655 135L736 135L736 144L818 144L818 191L900 191L900 164L900 0L900 0L818 0L818 0L736 0L736 0L655 0L655 0L573 0L573 0L491 0L491 0L409 0L409 0L327 0L327 0L245 0L245 0L164 0L164 0L82 0L82 0L0 0Z" fill="#14b8a6"></path><path d="M0 180L82 180L82 233L164 233L164 134L245 134L245 159L327 159L327 129L409 129L409 232L491 232L491 119L573 119L573 194L655 194L655 154L736 154L736 213L818 213L818 245L900 245L900 236L900 0L900 0L818 0L818 0L736 0L736 0L655 0L655 0L573 0L573 0L491 0L491 0L409 0L409 0L327 0L327 0L245 0L245 0L164 0L164 0L82 0L82 0L0 0Z" fill="#12b1a0"></path><path d="M0 184L82 184L82 191L164 191L164 98L245 98L245 100L327 100L327 155L409 155L409 154L491 154L491 153L573 153L573 96L655 96L655 135L736 135L736 129L818 129L818 148L900 148L900 133L900 0L900 0L818 0L818 0L736 0L736 0L655 0L655 0L573 0L573 0L491 0L491 0L409 0L409 0L327 0L327 0L245 0L245 0L164 0L164 0L82 0L82 0L0 0Z" fill="#11aa9a"></path><path d="M0 92L82 92L82 160L164 160L164 87L245 87L245 128L327 128L327 155L409 155L409 66L491 66L491 135L573 135L573 109L655 109L655 128L736 128L736 138L818 138L818 122L900 122L900 136L900 0L900 0L818 0L818 0L736 0L736 0L655 0L655 0L573 0L573 0L491 0L491 0L409 0L409 0L327 0L327 0L245 0L245 0L164 0L164 0L82 0L82 0L0 0Z" fill="#0fa294"></path><path d="M0 66L82 66L82 68L164 68L164 56L245 56L245 78L327 78L327 66L409 66L409 39L491 39L491 122L573 122L573 103L655 103L655 88L736 88L736 54L818 54L818 57L900 57L900 82L900 0L900 0L818 0L818 0L736 0L736 0L655 0L655 0L573 0L573 0L491 0L491 0L409 0L409 0L327 0L327 0L245 0L245 0L164 0L164 0L82 0L82 0L0 0Z" fill="#0e9b8e"></path><path d="M0 18L82 18L82 12L164 12L164 31L245 31L245 27L327 27L327 77L409 77L409 31L491 31L491 72L573 72L573 74L655 74L655 61L736 61L736 79L818 79L818 67L900 67L900 54L900 0L900 0L818 0L818 0L736 0L736 0L655 0L655 0L573 0L573 0L491 0L491 0L409 0L409 0L327 0L327 0L245 0L245 0L164 0L164 0L82 0L82 0L0 0Z" fill="#0d9488"></path></svg>