<svg id="visual" viewBox="0 0 900 600" width="900" height="600" xmlns="http://www.w3.org/2000/svg" xmlns:xlink="http://www.w3.org/1999/xlink" version="1.1"><path d="M0 236L129 201L257 201L386 211L514 247L643 188L771 197L900 150L900 0L771 0L643 0L514 0L386 0L257 0L129 0L0 0Z" fill="#ec4899"></path><path d="M0 185L129 199L257 185L386 200L514 155L643 137L771 139L900 143L900 0L771 0L643 0L514 0L386 0L257 0L129 0L0 0Z" fill="#e13d89"></path><path d="M0 121L129 112L257 148L386 131L514 98L643 90L771 158L900 132L900 0L771 0L643 0L514 0L386 0L257 0L129 0L0 0Z" fill="#d6317a"></path><path d="M0 77L129 91L257 68L386 79L514 88L643 76L771 114L900 110L900 0L771 0L643 0L514 0L386 0L257 0L129 0L0 0Z" fill="#ca256b"></path><path d="M0 46L129 72L257 39L386 65L514 35L643 52L771 36L900 29L900 0L771 0L643 0L514 0L386 0L257 0L129 0L0 0Z" fill="#be185d"></path></svg>