<svg width="900" height="113" viewBox="0 0 900 113" fill="none" xmlns="http://www.w3.org/2000/svg">
<g clip-path="url(#clip0_223_5)">
<path d="M0 31.9997L21.5 32.6998C43 33.2998 86 34.6998 128.8 39.1998C171.7 43.6998 214.3 51.2997 257.2 48.9997C300 46.6997 343 34.2997 385.8 33.2997C428.7 32.2997 471.3 42.6997 514.2 47.2997C557 51.9997 600 50.9997 642.8 38.4997C685.7 25.9997 728.3 1.99973 771.2 -0.200268C814 -2.30027 857 17.2998 878.5 27.1998L900 36.9997V114H878.5C857 114 814 114 771.2 114C728.3 114 685.7 114 642.8 114C600 114 557 114 514.2 114C471.3 114 428.7 114 385.8 114C343 114 300 114 257.2 114C214.3 114 171.7 114 128.8 114C86 114 43 114 21.5 114H0V31.9997Z" fill="#EA580C"/>
</g>
<defs>
<clipPath id="clip0_223_5">
<rect width="900" height="113" fill="white"/>
</clipPath>
</defs>
</svg>
