<svg width="800" height="800" viewBox="0 0 800 800" fill="none" xmlns="http://www.w3.org/2000/svg">
<path d="M400 733.333C242.865 733.333 164.297 733.333 115.482 684.517C66.6665 635.703 66.6665 557.133 66.6665 400C66.6665 242.865 66.6665 164.298 115.482 115.482C164.297 66.6667 242.865 66.6667 400 66.6667C557.133 66.6667 635.703 66.6667 684.516 115.482C733.333 164.298 733.333 242.865 733.333 400C733.333 557.133 733.333 635.703 684.516 684.517C635.703 733.333 557.133 733.333 400 733.333Z" fill="#FB923C"/>
<path d="M625 266.667C625 280.474 613.807 291.667 600 291.667H200C186.193 291.667 175 280.474 175 266.667C175 252.86 186.193 241.667 200 241.667H600C613.807 241.667 625 252.86 625 266.667Z" fill="#18181B"/>
<path d="M625 400C625 413.807 613.807 425 600 425H200C186.193 425 175 413.807 175 400C175 386.193 186.193 375 200 375H600C613.807 375 625 386.193 625 400Z" fill="#18181B"/>
<path d="M625 533.333C625 547.14 613.807 558.333 600 558.333H200C186.193 558.333 175 547.14 175 533.333C175 519.527 186.193 508.333 200 508.333H600C613.807 508.333 625 519.527 625 533.333Z" fill="#18181B"/>
</svg>
